# xmcd
#
# Track frame offsets: 
#        150
#        19224
#        41336
#        56711
#        72246
#        96734
#        109614
#        125428
#        148995
#
# Disc length: 2224 seconds
#
# Revision: 0
# Processed by: cddbd v1.5.2PL0 Copyright (c) Steve Scherf et al.
# Submitted via: ExactAudioCopy v1.0b6
#
DISCID=8608ae09
DTITLE=Saba Anglana - Ye katama hod
DYEAR=2015
DGENRE=Afrique
TTITLE0=Gabriel
TTITLE1=Tariken
TTITLE2=Zarraf
TTITLE3=Markaan yara
TTITLE4=Abebech
TTITLE5=Orod
TTITLE6=Ma celin karo
TTITLE7=Tizita
TTITLE8=Roob
EXTD=
EXTT0=
EXTT1=
EXTT2=
EXTT3=
EXTT4=
EXTT5=
EXTT6=
EXTT7=
EXTT8=
PLAYORDER=
